<?xml version="1.0" encoding="UTF-8" standalone="no"?>
<svg
   xmlns:dc="http://purl.org/dc/elements/1.1/"
   xmlns:cc="http://creativecommons.org/ns#"
   xmlns:rdf="http://www.w3.org/1999/02/22-rdf-syntax-ns#"
   xmlns:svg="http://www.w3.org/2000/svg"
   xmlns="http://www.w3.org/2000/svg"
   xmlns:sodipodi="http://sodipodi.sourceforge.net/DTD/sodipodi-0.dtd"
   xmlns:inkscape="http://www.inkscape.org/namespaces/inkscape"
   version="1.1"
   width="1500"
   height="630"
   viewBox="0 0 1500 630"
   id="svg6"
   sodipodi:docname="bootstrap-ionic.svg"
   inkscape:version="1.0.2 (1.0.2+r75+1)">
  <sodipodi:namedview
     pagecolor="#ffffff"
     bordercolor="#666666"
     borderopacity="1"
     objecttolerance="10"
     gridtolerance="10"
     guidetolerance="10"
     inkscape:pageopacity="0"
     inkscape:pageshadow="2"
     inkscape:window-width="1920"
     inkscape:window-height="1050"
     id="namedview30"
     showgrid="false"
     inkscape:zoom="0.65459689"
     inkscape:cx="740.0164"
     inkscape:cy="295.67984"
     inkscape:window-x="0"
     inkscape:window-y="30"
     inkscape:window-maximized="1"
     inkscape:current-layer="svg6" />
  <defs
     id="defs10">
    <linearGradient
       id="paint0_linear"
       x1="6.00017"
       y1="32.9999"
       x2="235"
       y2="344"
       gradientUnits="userSpaceOnUse">
      <stop
         stop-color="#41D1FF"
         id="stop902" />
      <stop
         offset="1"
         stop-color="#BD34FE"
         id="stop904" />
    </linearGradient>
    <linearGradient
       id="paint1_linear"
       x1="194.651"
       y1="8.81818"
       x2="236.076"
       y2="292.989"
       gradientUnits="userSpaceOnUse">
      <stop
         stop-color="#FFEA83"
         id="stop907" />
      <stop
         offset="0.0833333"
         stop-color="#FFDD35"
         id="stop909" />
      <stop
         offset="1"
         stop-color="#FFA800"
         id="stop911" />
    </linearGradient>
    <style
       type="text/css"
       id="style864"><![CDATA[
	.cls-1{fill:#478aff;}
      ]]></style>
  </defs>
  <title
     id="title2">Bootstrap Ionic cover image for DEV post</title>
  <metadata
     id="metadata4">
    <rdf:RDF>
      <cc:Work>
        <dc:format>image/svg+xml</dc:format>
        <dc:type
           rdf:resource="http://purl.org/dc/dcmitype/StillImage" />
        <dc:title>Bootstrap Ionic cover image for DEV post</dc:title>
        <dc:creator>
          <cc:Agent>
            <dc:title>Rohan &quot;HEXcube&quot; Villoth</dc:title>
          </cc:Agent>
        </dc:creator>
        <dc:description>Cover image for DEV post</dc:description>
        <cc:license
           rdf:resource="" />
        <dc:rights>
          <cc:Agent>
            <dc:title>Rohan &quot;HEXcube&quot; Villoth</dc:title>
          </cc:Agent>
        </dc:rights>
      </cc:Work>
    </rdf:RDF>
  </metadata>
  <rect
     style="fill:#f9f9f9"
     id="rect844"
     width="1500"
     height="630" />
  <g
     id="g899"
     transform="matrix(1.7718773,0,0,1.7718773,865.29392,184.82038)"
     style="stroke-width:0.564374">
    <path
       class="cls-1"
       d="m 107.75,222.5 a 33.5,33.5 0 1 0 33.5,33.5 33.54,33.54 0 0 0 -33.5,-33.5 z"
       transform="translate(-34.25,-182.5)"
       id="path870"
       style="stroke-width:0.564374" />
    <circle
       class="cls-1"
       cx="121.6"
       cy="27.709999"
       r="15.26"
       id="circle872"
       style="stroke-width:0.564374" />
    <path
       class="cls-1"
       d="m 174.64,225.55 -0.64,-1.4 -1,1.16 a 23,23 0 0 1 -9.21,6.34 l -1,0.36 0.4,1 A 60.09,60.09 0 1 1 133.48,201.8 l 0.94,0.45 0.41,-1 a 23,23 0 0 1 6.78,-8.89 l 1.2,-1 -1.37,-0.71 a 72.68,72.68 0 0 0 -33.7,-8.19 73.51,73.51 0 1 0 66.89,43 z"
       transform="translate(-34.25,-182.5)"
       id="path874"
       style="stroke-width:0.564374" />
  </g>
  <g
     id="g915"
     transform="translate(402,187)">
    <path
       d="M 0,222.991 C 0,241.223 14.779,256 33.009,256 H 222.99 C 241.223,256 256,241.221 256,222.991 V 33.01 C 256,14.777 241.221,0 222.991,0 H 33.01 C 14.777,0 0,14.779 0,33.009 V 222.99 Z"
       fill="#563d7c"
       id="path901" />
    <path
       d="M 106.158,113.238 V 76.985 h 31.911 c 3.04,0 5.97,0.253 8.792,0.76 2.822,0.506 5.319,1.41 7.49,2.713 2.17,1.303 3.907,3.112 5.21,5.427 1.302,2.316 1.954,5.283 1.954,8.9 0,6.513 -1.954,11.217 -5.862,14.111 -3.907,2.895 -8.9,4.342 -14.979,4.342 z M 72.075,50.5 v 155 h 75.112 c 6.947,0 13.713,-0.868 20.298,-2.605 6.585,-1.737 12.446,-4.414 17.584,-8.032 5.137,-3.618 9.226,-8.286 12.265,-14.002 3.04,-5.717 4.559,-12.483 4.559,-20.298 0,-9.697 -2.352,-17.982 -7.055,-24.856 -4.704,-6.875 -11.832,-11.687 -21.384,-14.437 6.947,-3.328 12.194,-7.598 15.74,-12.808 3.545,-5.21 5.318,-11.722 5.318,-19.538 0,-7.236 -1.194,-13.314 -3.582,-18.235 -2.388,-4.92 -5.753,-8.864 -10.095,-11.831 -4.341,-2.967 -9.551,-5.102 -15.63,-6.404 C 159.127,51.151 152.397,50.5 145.016,50.5 Z m 34.083,128.515 v -42.549 h 37.121 c 7.381,0 13.315,1.7 17.802,5.102 4.486,3.401 6.73,9.081 6.73,17.041 0,4.053 -0.688,7.381 -2.063,9.986 -1.375,2.605 -3.22,4.668 -5.536,6.187 -2.315,1.52 -4.993,2.605 -8.032,3.257 -3.04,0.65 -6.223,0.976 -9.552,0.976 z"
       fill="#ffffff"
       id="path903" />
  </g>
</svg>
